%TF.GenerationSoftware,KiCad,Pcbnew,8.0.1*%
%TF.CreationDate,2024-05-09T09:41:50-04:00*%
%TF.ProjectId,Project 4.0,50726f6a-6563-4742-9034-2e302e6b6963,rev?*%
%TF.SameCoordinates,Original*%
%TF.FileFunction,Legend,Bot*%
%TF.FilePolarity,Positive*%
%FSLAX46Y46*%
G04 Gerber Fmt 4.6, Leading zero omitted, Abs format (unit mm)*
G04 Created by KiCad (PCBNEW 8.0.1) date 2024-05-09 09:41:50*
%MOMM*%
%LPD*%
G01*
G04 APERTURE LIST*
%ADD10C,0.150000*%
G04 APERTURE END LIST*
D10*
X149294285Y-69853104D02*
X148818095Y-69853104D01*
X149389523Y-70138819D02*
X149056190Y-69138819D01*
X149056190Y-69138819D02*
X148722857Y-70138819D01*
X147865714Y-70138819D02*
X148437142Y-70138819D01*
X148151428Y-70138819D02*
X148151428Y-69138819D01*
X148151428Y-69138819D02*
X148246666Y-69281676D01*
X148246666Y-69281676D02*
X148341904Y-69376914D01*
X148341904Y-69376914D02*
X148437142Y-69424533D01*
X205278094Y-75599819D02*
X205278094Y-74599819D01*
X205278094Y-74599819D02*
X205039999Y-74599819D01*
X205039999Y-74599819D02*
X204897142Y-74647438D01*
X204897142Y-74647438D02*
X204801904Y-74742676D01*
X204801904Y-74742676D02*
X204754285Y-74837914D01*
X204754285Y-74837914D02*
X204706666Y-75028390D01*
X204706666Y-75028390D02*
X204706666Y-75171247D01*
X204706666Y-75171247D02*
X204754285Y-75361723D01*
X204754285Y-75361723D02*
X204801904Y-75456961D01*
X204801904Y-75456961D02*
X204897142Y-75552200D01*
X204897142Y-75552200D02*
X205039999Y-75599819D01*
X205039999Y-75599819D02*
X205278094Y-75599819D01*
X204325713Y-74695057D02*
X204278094Y-74647438D01*
X204278094Y-74647438D02*
X204182856Y-74599819D01*
X204182856Y-74599819D02*
X203944761Y-74599819D01*
X203944761Y-74599819D02*
X203849523Y-74647438D01*
X203849523Y-74647438D02*
X203801904Y-74695057D01*
X203801904Y-74695057D02*
X203754285Y-74790295D01*
X203754285Y-74790295D02*
X203754285Y-74885533D01*
X203754285Y-74885533D02*
X203801904Y-75028390D01*
X203801904Y-75028390D02*
X204373332Y-75599819D01*
X204373332Y-75599819D02*
X203754285Y-75599819D01*
%TO.C,A1*%
X146040000Y-70700000D02*
X146040000Y-124040000D01*
X146040000Y-70700000D02*
X243576000Y-70700000D01*
X146040000Y-124040000D02*
X245100000Y-124040000D01*
X243576000Y-70700000D02*
X245100000Y-72224000D01*
X245100000Y-83400000D02*
X245100000Y-72224000D01*
X245100000Y-122770000D02*
X247640000Y-120230000D01*
X245100000Y-124040000D02*
X245100000Y-122770000D01*
X247640000Y-85940000D02*
X245100000Y-83400000D01*
X247640000Y-120230000D02*
X247640000Y-85940000D01*
%TD*%
M02*
