%TF.GenerationSoftware,KiCad,Pcbnew,8.0.1*%
%TF.CreationDate,2024-05-09T09:41:49-04:00*%
%TF.ProjectId,Project 4.0,50726f6a-6563-4742-9034-2e302e6b6963,rev?*%
%TF.SameCoordinates,Original*%
%TF.FileFunction,Copper,L1,Top*%
%TF.FilePolarity,Positive*%
%FSLAX46Y46*%
G04 Gerber Fmt 4.6, Leading zero omitted, Abs format (unit mm)*
G04 Created by KiCad (PCBNEW 8.0.1) date 2024-05-09 09:41:49*
%MOMM*%
%LPD*%
G01*
G04 APERTURE LIST*
%TA.AperFunction,ComponentPad*%
%ADD10C,1.400000*%
%TD*%
%TA.AperFunction,ComponentPad*%
%ADD11O,1.400000X1.400000*%
%TD*%
%TA.AperFunction,ComponentPad*%
%ADD12R,1.498000X1.498000*%
%TD*%
%TA.AperFunction,ComponentPad*%
%ADD13C,1.498000*%
%TD*%
%TA.AperFunction,ComponentPad*%
%ADD14R,1.600000X1.600000*%
%TD*%
%TA.AperFunction,ComponentPad*%
%ADD15O,1.600000X1.600000*%
%TD*%
%TA.AperFunction,ComponentPad*%
%ADD16O,1.727200X1.727200*%
%TD*%
%TA.AperFunction,ComponentPad*%
%ADD17C,1.727200*%
%TD*%
%TA.AperFunction,ComponentPad*%
%ADD18R,2.000000X1.500000*%
%TD*%
%TA.AperFunction,Conductor*%
%ADD19C,1.000000*%
%TD*%
G04 APERTURE END LIST*
D10*
%TO.P,R10,1*%
%TO.N,Net-(M1-Row1)*%
X143190000Y-80800000D03*
D11*
%TO.P,R10,2*%
%TO.N,Net-(A1-PadD10)*%
X150810000Y-80800000D03*
%TD*%
D12*
%TO.P,SW1,1,A*%
%TO.N,Net-(A1-PadD39)*%
X253310000Y-69000000D03*
D13*
%TO.P,SW1,2,A*%
X259810000Y-69000000D03*
%TO.P,SW1,3,B*%
%TO.N,Net-(A1-GND-PadGND6)*%
X253310000Y-73500000D03*
%TO.P,SW1,4,B*%
X259810000Y-73500000D03*
%TD*%
D10*
%TO.P,R9,1*%
%TO.N,Net-(M2-Row4)*%
X204500000Y-80690000D03*
D11*
%TO.P,R9,2*%
%TO.N,/D2*%
X204500000Y-88310000D03*
%TD*%
D10*
%TO.P,R2,1*%
%TO.N,Net-(M2-Row5)*%
X215500000Y-80000000D03*
D11*
%TO.P,R2,2*%
%TO.N,Net-(A1-PadD46)*%
X215500000Y-87620000D03*
%TD*%
D10*
%TO.P,R5,1*%
%TO.N,Net-(M2-Row8)*%
X252000000Y-81190000D03*
D11*
%TO.P,R5,2*%
%TO.N,Net-(A1-PadD47)*%
X252000000Y-88810000D03*
%TD*%
D10*
%TO.P,R6,1*%
%TO.N,Net-(M2-Row1)*%
X197000000Y-80690000D03*
D11*
%TO.P,R6,2*%
%TO.N,Net-(A1-PadD5)*%
X197000000Y-88310000D03*
%TD*%
D10*
%TO.P,R14,1*%
%TO.N,Net-(M1-Row5)*%
X170190000Y-88300000D03*
D11*
%TO.P,R14,2*%
%TO.N,Net-(A1-PadD6)*%
X177810000Y-88300000D03*
%TD*%
D10*
%TO.P,R15,1*%
%TO.N,Net-(M1-Row6)*%
X170190000Y-86200000D03*
D11*
%TO.P,R15,2*%
%TO.N,Net-(A1-PadD7)*%
X177810000Y-86200000D03*
%TD*%
D10*
%TO.P,R8,1*%
%TO.N,Net-(M2-Row3)*%
X202000000Y-80690000D03*
D11*
%TO.P,R8,2*%
%TO.N,Net-(A1-D3_INT1)*%
X202000000Y-88310000D03*
%TD*%
D10*
%TO.P,R7,1*%
%TO.N,Net-(M2-Row2)*%
X199500000Y-80690000D03*
D11*
%TO.P,R7,2*%
%TO.N,Net-(A1-PadD4)*%
X199500000Y-88310000D03*
%TD*%
D10*
%TO.P,R13,1*%
%TO.N,Net-(M1-Row4)*%
X143190000Y-74500000D03*
D11*
%TO.P,R13,2*%
%TO.N,Net-(A1-A-PadD13)*%
X150810000Y-74500000D03*
%TD*%
D10*
%TO.P,R3,1*%
%TO.N,Net-(M2-Row6)*%
X249900000Y-81190000D03*
D11*
%TO.P,R3,2*%
%TO.N,Net-(A1-PadD45)*%
X249900000Y-88810000D03*
%TD*%
D10*
%TO.P,R12,1*%
%TO.N,Net-(M1-Row3)*%
X143190000Y-76600000D03*
D11*
%TO.P,R12,2*%
%TO.N,Net-(A1-PadD12)*%
X150810000Y-76600000D03*
%TD*%
D10*
%TO.P,R11,1*%
%TO.N,Net-(M1-Row2)*%
X143190000Y-78700000D03*
D11*
%TO.P,R11,2*%
%TO.N,Net-(A1-PadD11)*%
X150810000Y-78700000D03*
%TD*%
D10*
%TO.P,R4,1*%
%TO.N,Net-(M2-Row7)*%
X218900000Y-80000000D03*
D11*
%TO.P,R4,2*%
%TO.N,Net-(A1-PadD44)*%
X218900000Y-87620000D03*
%TD*%
D10*
%TO.P,R16,1*%
%TO.N,Net-(M1-Row7)*%
X170190000Y-84100000D03*
D11*
%TO.P,R16,2*%
%TO.N,Net-(A1-PadD8)*%
X177810000Y-84100000D03*
%TD*%
D10*
%TO.P,R1,1*%
%TO.N,Net-(A1-5V-Pad5V4)*%
X253000000Y-65500000D03*
D11*
%TO.P,R1,2*%
%TO.N,Net-(A1-PadD39)*%
X260620000Y-65500000D03*
%TD*%
D14*
%TO.P,M2,1,C1B*%
%TO.N,Net-(M1-C1B)*%
X235030000Y-112380000D03*
D15*
%TO.P,M2,2,C2B*%
%TO.N,Net-(M1-C2B)*%
X232490000Y-112380000D03*
%TO.P,M2,3,C3B*%
%TO.N,Net-(M1-C3B)*%
X229950000Y-112380000D03*
%TO.P,M2,4,C4B*%
%TO.N,Net-(M1-C4B)*%
X227410000Y-112380000D03*
%TO.P,M2,5,C5B*%
%TO.N,Net-(M1-C5B)*%
X224870000Y-112380000D03*
%TO.P,M2,6,C6B*%
%TO.N,Net-(M1-C6B)*%
X222330000Y-112380000D03*
%TO.P,M2,7,C7B*%
%TO.N,Net-(M1-C7B)*%
X219790000Y-112380000D03*
%TO.P,M2,8,C8B*%
%TO.N,Net-(M1-C8B)*%
X217250000Y-112380000D03*
%TO.P,M2,9,C1R*%
%TO.N,Net-(M1-C1R)*%
X214710000Y-112380000D03*
%TO.P,M2,10,C2R*%
%TO.N,Net-(M1-C2R)*%
X212170000Y-112380000D03*
%TO.P,M2,11,C3R*%
%TO.N,Net-(M1-C3R)*%
X209630000Y-112380000D03*
%TO.P,M2,12,C4R*%
%TO.N,Net-(M1-C4R)*%
X207090000Y-112380000D03*
%TO.P,M2,13,C5R*%
%TO.N,Net-(M1-C5R)*%
X204550000Y-112380000D03*
%TO.P,M2,14,C6R*%
%TO.N,Net-(M1-C6R)*%
X202010000Y-112380000D03*
%TO.P,M2,15,C7R*%
%TO.N,Net-(M1-C7R)*%
X199470000Y-112380000D03*
%TO.P,M2,16,C8R*%
%TO.N,Net-(M1-C8R)*%
X196930000Y-112380000D03*
%TO.P,M2,17,Row1*%
%TO.N,Net-(M2-Row1)*%
X196930000Y-66120000D03*
%TO.P,M2,18,Row2*%
%TO.N,Net-(M2-Row2)*%
X199470000Y-66120000D03*
%TO.P,M2,19,Row3*%
%TO.N,Net-(M2-Row3)*%
X202010000Y-66120000D03*
%TO.P,M2,20,Row4*%
%TO.N,Net-(M2-Row4)*%
X204550000Y-66120000D03*
%TO.P,M2,21,C8G*%
%TO.N,Net-(M1-C8G)*%
X207090000Y-66120000D03*
%TO.P,M2,22,C7G*%
%TO.N,Net-(M1-C7G)*%
X209630000Y-66120000D03*
%TO.P,M2,23,C6G*%
%TO.N,Net-(M1-C6G)*%
X212170000Y-66120000D03*
%TO.P,M2,24,C5G*%
%TO.N,Net-(M1-C5G)*%
X214710000Y-66120000D03*
%TO.P,M2,25,C4G*%
%TO.N,Net-(M1-C4G)*%
X217250000Y-66120000D03*
%TO.P,M2,26,C3G*%
%TO.N,Net-(M1-C3G)*%
X219790000Y-66120000D03*
%TO.P,M2,27,C2G*%
%TO.N,Net-(M1-C2G)*%
X222330000Y-66120000D03*
%TO.P,M2,28,C1G*%
%TO.N,Net-(M1-C1G)*%
X224870000Y-66120000D03*
%TO.P,M2,29,Row5*%
%TO.N,Net-(M2-Row5)*%
X227410000Y-66120000D03*
%TO.P,M2,30,Row6*%
%TO.N,Net-(M2-Row6)*%
X229950000Y-66120000D03*
%TO.P,M2,31,Row7*%
%TO.N,Net-(M2-Row7)*%
X232490000Y-66120000D03*
%TO.P,M2,32,Row8*%
%TO.N,Net-(M2-Row8)*%
X235030000Y-66120000D03*
%TD*%
D10*
%TO.P,R17,1*%
%TO.N,Net-(M1-Row8)*%
X170190000Y-82000000D03*
D11*
%TO.P,R17,2*%
%TO.N,Net-(A1-PadD9)*%
X177810000Y-82000000D03*
%TD*%
D16*
%TO.P,A1,5V3,5V*%
%TO.N,unconnected-(A1-5V-Pad5V3)*%
X240020000Y-73240000D03*
%TO.P,A1,5V4,5V*%
%TO.N,Net-(A1-5V-Pad5V4)*%
X242560000Y-73240000D03*
%TO.P,A1,A6,L*%
%TO.N,Net-(A1-L-PadA6)*%
X212080000Y-121540000D03*
%TO.P,A1,A7,L*%
%TO.N,Net-(A1-L-PadA7)*%
X214620000Y-121500000D03*
%TO.P,A1,A8,K*%
%TO.N,Net-(M1-C8B)*%
X219700000Y-121500000D03*
%TO.P,A1,A9,K*%
%TO.N,Net-(M1-C7B)*%
X222240000Y-121500000D03*
%TO.P,A1,A10,K*%
%TO.N,Net-(M1-C6B)*%
X224780000Y-121500000D03*
%TO.P,A1,A11,K*%
%TO.N,Net-(M1-C5B)*%
X227320000Y-121500000D03*
%TO.P,A1,A12,K*%
%TO.N,Net-(M1-C4B)*%
X229860000Y-121500000D03*
%TO.P,A1,A13,K*%
%TO.N,Net-(M1-C3B)*%
X232400000Y-121500000D03*
%TO.P,A1,A14,K*%
%TO.N,Net-(M1-C2B)*%
X234940000Y-121500000D03*
%TO.P,A1,A15,K*%
%TO.N,Net-(M1-C1B)*%
X237480000Y-121500000D03*
%TO.P,A1,D2,D2_INT0*%
%TO.N,/D2*%
X204460000Y-73240000D03*
%TO.P,A1,D3,D3_INT1*%
%TO.N,Net-(A1-D3_INT1)*%
X201920000Y-73240000D03*
%TO.P,A1,D4,D4*%
%TO.N,Net-(A1-PadD4)*%
X199380000Y-73240000D03*
%TO.P,A1,D5,D5*%
%TO.N,Net-(A1-PadD5)*%
X196840000Y-73240000D03*
%TO.P,A1,D6,D6*%
%TO.N,Net-(A1-PadD6)*%
X194300000Y-73240000D03*
%TO.P,A1,D7,D7*%
%TO.N,Net-(A1-PadD7)*%
X191760000Y-73240000D03*
%TO.P,A1,D8,D8*%
%TO.N,Net-(A1-PadD8)*%
X187696000Y-73240000D03*
%TO.P,A1,D9,D9*%
%TO.N,Net-(A1-PadD9)*%
X185156000Y-73240000D03*
%TO.P,A1,D10,D10*%
%TO.N,Net-(A1-PadD10)*%
X182616000Y-73240000D03*
%TO.P,A1,D11,D11*%
%TO.N,Net-(A1-PadD11)*%
X180076000Y-73240000D03*
%TO.P,A1,D12,D12*%
%TO.N,Net-(A1-PadD12)*%
X177536000Y-73240000D03*
%TO.P,A1,D13,A*%
%TO.N,Net-(A1-A-PadD13)*%
X174996000Y-73240000D03*
%TO.P,A1,D22,A*%
%TO.N,Net-(M1-C1G)*%
X240020000Y-75780000D03*
%TO.P,A1,D23,A*%
%TO.N,Net-(M1-C2G)*%
X242560000Y-75780000D03*
%TO.P,A1,D24,A*%
%TO.N,Net-(M1-C3G)*%
X240020000Y-78320000D03*
%TO.P,A1,D25,A*%
%TO.N,Net-(M1-C4G)*%
X242560000Y-78320000D03*
%TO.P,A1,D26,A*%
%TO.N,Net-(M1-C5G)*%
X240020000Y-80860000D03*
%TO.P,A1,D27,A*%
%TO.N,Net-(M1-C6G)*%
X242560000Y-80860000D03*
%TO.P,A1,D28,A*%
%TO.N,Net-(M1-C7G)*%
X240020000Y-83400000D03*
%TO.P,A1,D29,A*%
%TO.N,Net-(M1-C8G)*%
X242560000Y-83400000D03*
%TO.P,A1,D30,C*%
%TO.N,Net-(M1-C8R)*%
X240020000Y-85940000D03*
%TO.P,A1,D31,C*%
%TO.N,Net-(M1-C7R)*%
X242560000Y-85940000D03*
%TO.P,A1,D32,C*%
%TO.N,Net-(M1-C6R)*%
X240020000Y-88480000D03*
%TO.P,A1,D33,C*%
%TO.N,Net-(M1-C5R)*%
X242560000Y-88480000D03*
%TO.P,A1,D34,C*%
%TO.N,Net-(M1-C4R)*%
X240020000Y-91020000D03*
%TO.P,A1,D35,C*%
%TO.N,Net-(M1-C3R)*%
X242560000Y-91020000D03*
%TO.P,A1,D36,C*%
%TO.N,Net-(M1-C2R)*%
X240020000Y-93560000D03*
%TO.P,A1,D37,C*%
%TO.N,Net-(M1-C1R)*%
X242560000Y-93560000D03*
%TO.P,A1,D38,D38*%
%TO.N,unconnected-(A1-PadD38)*%
X240020000Y-96100000D03*
%TO.P,A1,D39,D39*%
%TO.N,Net-(A1-PadD39)*%
X242560000Y-96100000D03*
%TO.P,A1,D40,D40*%
%TO.N,unconnected-(A1-PadD40)*%
X240020000Y-98640000D03*
%TO.P,A1,D41,D41*%
%TO.N,unconnected-(A1-PadD41)*%
X242560000Y-98640000D03*
%TO.P,A1,D42,D42*%
%TO.N,unconnected-(A1-PadD42)*%
X240020000Y-101180000D03*
%TO.P,A1,D43,D43*%
%TO.N,unconnected-(A1-PadD43)*%
X242560000Y-101180000D03*
%TO.P,A1,D44,D44*%
%TO.N,Net-(A1-PadD44)*%
X240020000Y-103720000D03*
%TO.P,A1,D45,D45*%
%TO.N,Net-(A1-PadD45)*%
X242560000Y-103720000D03*
%TO.P,A1,D46,D46*%
%TO.N,Net-(A1-PadD46)*%
X240020000Y-106260000D03*
%TO.P,A1,D47,D47*%
%TO.N,Net-(A1-PadD47)*%
X242560000Y-106260000D03*
%TO.P,A1,D48,D48*%
%TO.N,unconnected-(A1-PadD48)*%
X240020000Y-108800000D03*
%TO.P,A1,D49,D49*%
%TO.N,unconnected-(A1-PadD49)*%
X242560000Y-108800000D03*
%TO.P,A1,D50,D50_MISO*%
%TO.N,unconnected-(A1-D50_MISO-PadD50)*%
X240020000Y-111340000D03*
%TO.P,A1,D51,D51_MOSI*%
%TO.N,unconnected-(A1-D51_MOSI-PadD51)*%
X242560000Y-111340000D03*
%TO.P,A1,D52,D52_SCK*%
%TO.N,unconnected-(A1-D52_SCK-PadD52)*%
X240020000Y-113880000D03*
%TO.P,A1,D53,D53_CS*%
%TO.N,unconnected-(A1-D53_CS-PadD53)*%
X242560000Y-113880000D03*
D17*
%TO.P,A1,GND6,GND*%
%TO.N,Net-(A1-GND-PadGND6)*%
X242560000Y-116420000D03*
%TD*%
D14*
%TO.P,M1,1,C1B*%
%TO.N,Net-(M1-C1B)*%
X173530000Y-112380000D03*
D15*
%TO.P,M1,2,C2B*%
%TO.N,Net-(M1-C2B)*%
X170990000Y-112380000D03*
%TO.P,M1,3,C3B*%
%TO.N,Net-(M1-C3B)*%
X168450000Y-112380000D03*
%TO.P,M1,4,C4B*%
%TO.N,Net-(M1-C4B)*%
X165910000Y-112380000D03*
%TO.P,M1,5,C5B*%
%TO.N,Net-(M1-C5B)*%
X163370000Y-112380000D03*
%TO.P,M1,6,C6B*%
%TO.N,Net-(M1-C6B)*%
X160830000Y-112380000D03*
%TO.P,M1,7,C7B*%
%TO.N,Net-(M1-C7B)*%
X158290000Y-112380000D03*
%TO.P,M1,8,C8B*%
%TO.N,Net-(M1-C8B)*%
X155750000Y-112380000D03*
%TO.P,M1,9,C1R*%
%TO.N,Net-(M1-C1R)*%
X153210000Y-112380000D03*
%TO.P,M1,10,C2R*%
%TO.N,Net-(M1-C2R)*%
X150670000Y-112380000D03*
%TO.P,M1,11,C3R*%
%TO.N,Net-(M1-C3R)*%
X148130000Y-112380000D03*
%TO.P,M1,12,C4R*%
%TO.N,Net-(M1-C4R)*%
X145590000Y-112380000D03*
%TO.P,M1,13,C5R*%
%TO.N,Net-(M1-C5R)*%
X143050000Y-112380000D03*
%TO.P,M1,14,C6R*%
%TO.N,Net-(M1-C6R)*%
X140510000Y-112380000D03*
%TO.P,M1,15,C7R*%
%TO.N,Net-(M1-C7R)*%
X137970000Y-112380000D03*
%TO.P,M1,16,C8R*%
%TO.N,Net-(M1-C8R)*%
X135430000Y-112380000D03*
%TO.P,M1,17,Row1*%
%TO.N,Net-(M1-Row1)*%
X135430000Y-66120000D03*
%TO.P,M1,18,Row2*%
%TO.N,Net-(M1-Row2)*%
X137970000Y-66120000D03*
%TO.P,M1,19,Row3*%
%TO.N,Net-(M1-Row3)*%
X140510000Y-66120000D03*
%TO.P,M1,20,Row4*%
%TO.N,Net-(M1-Row4)*%
X143050000Y-66120000D03*
%TO.P,M1,21,C8G*%
%TO.N,Net-(M1-C8G)*%
X145590000Y-66120000D03*
%TO.P,M1,22,C7G*%
%TO.N,Net-(M1-C7G)*%
X148130000Y-66120000D03*
%TO.P,M1,23,C6G*%
%TO.N,Net-(M1-C6G)*%
X150670000Y-66120000D03*
%TO.P,M1,24,C5G*%
%TO.N,Net-(M1-C5G)*%
X153210000Y-66120000D03*
%TO.P,M1,25,C4G*%
%TO.N,Net-(M1-C4G)*%
X155750000Y-66120000D03*
%TO.P,M1,26,C3G*%
%TO.N,Net-(M1-C3G)*%
X158290000Y-66120000D03*
%TO.P,M1,27,C2G*%
%TO.N,Net-(M1-C2G)*%
X160830000Y-66120000D03*
%TO.P,M1,28,C1G*%
%TO.N,Net-(M1-C1G)*%
X163370000Y-66120000D03*
%TO.P,M1,29,Row5*%
%TO.N,Net-(M1-Row5)*%
X165910000Y-66120000D03*
%TO.P,M1,30,Row6*%
%TO.N,Net-(M1-Row6)*%
X168450000Y-66120000D03*
%TO.P,M1,31,Row7*%
%TO.N,Net-(M1-Row7)*%
X170990000Y-66120000D03*
%TO.P,M1,32,Row8*%
%TO.N,Net-(M1-Row8)*%
X173530000Y-66120000D03*
%TD*%
D18*
%TO.P,J1,R*%
%TO.N,Net-(A1-L-PadA6)*%
X252700000Y-120750000D03*
%TO.P,J1,S*%
%TO.N,Net-(A1-GND-PadGND6)*%
X258000000Y-117000000D03*
%TO.P,J1,T*%
%TO.N,Net-(A1-L-PadA7)*%
X252700000Y-116250000D03*
%TD*%
D19*
%TO.N,Net-(M1-C3R)*%
X244500000Y-121000000D02*
X247000000Y-118500000D01*
X247000000Y-118500000D02*
X247000000Y-95460000D01*
X240000000Y-121000000D02*
X244500000Y-121000000D01*
X247000000Y-95460000D02*
X242560000Y-91020000D01*
X238000000Y-119000000D02*
X240000000Y-121000000D01*
X216260000Y-119000000D02*
X238000000Y-119000000D01*
X209640000Y-112380000D02*
X216260000Y-119000000D01*
%TO.N,Net-(M1-C7G)*%
X239910000Y-83290000D02*
X240020000Y-83400000D01*
X226800000Y-83290000D02*
X239910000Y-83290000D01*
X209630000Y-66120000D02*
X226800000Y-83290000D01*
%TO.N,Net-(M1-C8G)*%
X187500000Y-71000000D02*
X150470000Y-71000000D01*
X207090000Y-66120000D02*
X204970000Y-64000000D01*
X150470000Y-71000000D02*
X145590000Y-66120000D01*
X194500000Y-64000000D02*
X187500000Y-71000000D01*
X204970000Y-64000000D02*
X194500000Y-64000000D01*
%TO.N,Net-(M1-C7R)*%
X199480000Y-116980000D02*
X199480000Y-112380000D01*
X250500000Y-93880000D02*
X250500000Y-121000000D01*
X207500000Y-125000000D02*
X199480000Y-116980000D01*
X246500000Y-125000000D02*
X207500000Y-125000000D01*
X250500000Y-121000000D02*
X246500000Y-125000000D01*
X242560000Y-85940000D02*
X250500000Y-93880000D01*
%TO.N,Net-(M1-C1R)*%
X245000000Y-96000000D02*
X245000000Y-117250000D01*
X245000000Y-117250000D02*
X243250000Y-119000000D01*
X243250000Y-119000000D02*
X241000000Y-119000000D01*
X239000000Y-117000000D02*
X219340000Y-117000000D01*
X219340000Y-117000000D02*
X214720000Y-112380000D01*
X242560000Y-93560000D02*
X245000000Y-96000000D01*
X241000000Y-119000000D02*
X239000000Y-117000000D01*
%TO.N,Net-(M1-C5R)*%
X242560000Y-88480000D02*
X248500000Y-94420000D01*
X248500000Y-94420000D02*
X248500000Y-120000000D01*
X204560000Y-116560000D02*
X204560000Y-112380000D01*
X211500000Y-123500000D02*
X204560000Y-116560000D01*
X248500000Y-120000000D02*
X245000000Y-123500000D01*
X245000000Y-123500000D02*
X211500000Y-123500000D01*
%TO.N,Net-(M1-C3G)*%
X231990000Y-78320000D02*
X240020000Y-78320000D01*
X219790000Y-66120000D02*
X231990000Y-78320000D01*
%TO.N,Net-(M1-C5G)*%
X214710000Y-66120000D02*
X229450000Y-80860000D01*
X229450000Y-80860000D02*
X240020000Y-80860000D01*
%TO.N,Net-(M1-C1G)*%
X224870000Y-66120000D02*
X234530000Y-75780000D01*
X224870000Y-66120000D02*
X217250000Y-58500000D01*
X217250000Y-58500000D02*
X170990000Y-58500000D01*
X234530000Y-75780000D02*
X240020000Y-75780000D01*
X170990000Y-58500000D02*
X163370000Y-66120000D01*
%TO.N,Net-(M1-C6G)*%
X186500000Y-69500000D02*
X153950000Y-69500000D01*
X208550000Y-62500000D02*
X193500000Y-62500000D01*
X193500000Y-62500000D02*
X186500000Y-69500000D01*
X212170000Y-66120000D02*
X208550000Y-62500000D01*
X153950000Y-69500000D02*
X150670000Y-66220000D01*
X150670000Y-66220000D02*
X150670000Y-66120000D01*
%TO.N,Net-(M1-C4G)*%
X185500000Y-68000000D02*
X157630000Y-68000000D01*
X217250000Y-66120000D02*
X211630000Y-60500000D01*
X193000000Y-60500000D02*
X185500000Y-68000000D01*
X157630000Y-68000000D02*
X155750000Y-66120000D01*
X211630000Y-60500000D02*
X193000000Y-60500000D01*
%TO.N,Net-(M1-Row1)*%
X135430000Y-66120000D02*
X135430000Y-75430000D01*
X140800000Y-80800000D02*
X143190000Y-80800000D01*
X135430000Y-75430000D02*
X140800000Y-80800000D01*
%TO.N,Net-(M1-Row3)*%
X142200051Y-76600000D02*
X143190000Y-76600000D01*
X140510000Y-66120000D02*
X140510000Y-74909949D01*
X140510000Y-74909949D02*
X142200051Y-76600000D01*
%TO.N,Net-(M1-Row4)*%
X143050000Y-66120000D02*
X143050000Y-74360000D01*
X143050000Y-74360000D02*
X143190000Y-74500000D01*
%TO.N,Net-(M1-Row2)*%
X141200000Y-78700000D02*
X143190000Y-78700000D01*
X137970000Y-75470000D02*
X141200000Y-78700000D01*
X137970000Y-66120000D02*
X137970000Y-75470000D01*
%TO.N,Net-(M2-Row6)*%
X231830000Y-68000000D02*
X241000000Y-68000000D01*
X229950000Y-66120000D02*
X231830000Y-68000000D01*
X241000000Y-68000000D02*
X249900000Y-76900000D01*
X249900000Y-76900000D02*
X249900000Y-81190000D01*
%TO.N,Net-(M2-Row8)*%
X241620000Y-66120000D02*
X252000000Y-76500000D01*
X235030000Y-66120000D02*
X241620000Y-66120000D01*
X252000000Y-76500000D02*
X252000000Y-81190000D01*
%TO.N,Net-(M2-Row1)*%
X189700000Y-71300000D02*
X194880000Y-66120000D01*
X194390000Y-80690000D02*
X197000000Y-80690000D01*
X194880000Y-66120000D02*
X196930000Y-66120000D01*
X189700000Y-71300000D02*
X189700000Y-76000000D01*
X189700000Y-76000000D02*
X194390000Y-80690000D01*
%TO.N,Net-(M2-Row2)*%
X207500000Y-75520102D02*
X206020102Y-77000000D01*
X207500000Y-73589898D02*
X207500000Y-75520102D01*
X204350000Y-71000000D02*
X204910102Y-71000000D01*
X199470000Y-66120000D02*
X204350000Y-71000000D01*
X203190000Y-77000000D02*
X199500000Y-80690000D01*
X206020102Y-77000000D02*
X203190000Y-77000000D01*
X204910102Y-71000000D02*
X207500000Y-73589898D01*
%TO.N,Net-(A1-PadD44)*%
X235220000Y-103720000D02*
X240020000Y-103720000D01*
X219120000Y-87620000D02*
X235220000Y-103720000D01*
X218900000Y-87620000D02*
X219120000Y-87620000D01*
%TO.N,Net-(A1-PadD11)*%
X154000000Y-77500000D02*
X175816000Y-77500000D01*
X152800000Y-78700000D02*
X154000000Y-77500000D01*
X150810000Y-78700000D02*
X152800000Y-78700000D01*
X175816000Y-77500000D02*
X180076000Y-73240000D01*
%TO.N,Net-(A1-PadD10)*%
X176356000Y-79500000D02*
X182616000Y-73240000D01*
X155000000Y-79500000D02*
X176356000Y-79500000D01*
X153700000Y-80800000D02*
X155000000Y-79500000D01*
X150810000Y-80800000D02*
X153700000Y-80800000D01*
%TO.N,Net-(A1-PadD12)*%
X151900000Y-76600000D02*
X153000000Y-75500000D01*
X153000000Y-75500000D02*
X175276000Y-75500000D01*
X150810000Y-76600000D02*
X151900000Y-76600000D01*
X175276000Y-75500000D02*
X177536000Y-73240000D01*
%TO.N,Net-(A1-PadD46)*%
X215500000Y-87620000D02*
X234140000Y-106260000D01*
X234140000Y-106260000D02*
X240020000Y-106260000D01*
%TO.N,Net-(M2-Row4)*%
X207310000Y-80690000D02*
X204500000Y-80690000D01*
X211500000Y-76500000D02*
X207310000Y-80690000D01*
X204550000Y-66120000D02*
X211500000Y-73070000D01*
X211500000Y-73070000D02*
X211500000Y-76500000D01*
%TO.N,Net-(M2-Row3)*%
X209500000Y-73610000D02*
X202010000Y-66120000D01*
X204190000Y-78500000D02*
X206500000Y-78500000D01*
X202000000Y-80690000D02*
X204190000Y-78500000D01*
X209500000Y-75500000D02*
X209500000Y-73610000D01*
X206500000Y-78500000D02*
X209500000Y-75500000D01*
%TO.N,Net-(A1-A-PadD13)*%
X152070000Y-73240000D02*
X150810000Y-74500000D01*
X174996000Y-73240000D02*
X152070000Y-73240000D01*
%TO.N,Net-(M1-C7B)*%
X181000000Y-123000000D02*
X166000000Y-123000000D01*
X219790000Y-112380000D02*
X219790000Y-112290000D01*
X219790000Y-112290000D02*
X214500000Y-107000000D01*
X214500000Y-107000000D02*
X197000000Y-107000000D01*
X158290000Y-115290000D02*
X158290000Y-112380000D01*
X197000000Y-107000000D02*
X181000000Y-123000000D01*
X166000000Y-123000000D02*
X158290000Y-115290000D01*
%TO.N,Net-(M1-C1B)*%
X217650000Y-95000000D02*
X190910000Y-95000000D01*
X235030000Y-112380000D02*
X217650000Y-95000000D01*
X235030000Y-112380000D02*
X234880000Y-112380000D01*
X190910000Y-95000000D02*
X173530000Y-112380000D01*
%TO.N,Net-(M1-C3B)*%
X229880000Y-112380000D02*
X216500000Y-99000000D01*
X229950000Y-112380000D02*
X229880000Y-112380000D01*
X176500000Y-116500000D02*
X171500000Y-116500000D01*
X194000000Y-99000000D02*
X176500000Y-116500000D01*
X171500000Y-116500000D02*
X168450000Y-113450000D01*
X216500000Y-99000000D02*
X194000000Y-99000000D01*
X168450000Y-113450000D02*
X168450000Y-112380000D01*
%TO.N,Net-(M1-C8B)*%
X165000000Y-125000000D02*
X155750000Y-115750000D01*
X181500000Y-125000000D02*
X165000000Y-125000000D01*
X197500000Y-109000000D02*
X181500000Y-125000000D01*
X217250000Y-112380000D02*
X213870000Y-109000000D01*
X213870000Y-109000000D02*
X197500000Y-109000000D01*
X155750000Y-115750000D02*
X155750000Y-112380000D01*
%TO.N,Net-(M1-C4B)*%
X194500000Y-101000000D02*
X177000000Y-118500000D01*
X216030000Y-101000000D02*
X194500000Y-101000000D01*
X177000000Y-118500000D02*
X170750000Y-118500000D01*
X227410000Y-112380000D02*
X216030000Y-101000000D01*
X170750000Y-118500000D02*
X165910000Y-113660000D01*
X165910000Y-113660000D02*
X165910000Y-112380000D01*
%TO.N,Net-(M1-C2B)*%
X232380000Y-112380000D02*
X217000000Y-97000000D01*
X170990000Y-112990000D02*
X170990000Y-112380000D01*
X175500000Y-115000000D02*
X173000000Y-115000000D01*
X232490000Y-112380000D02*
X232380000Y-112380000D01*
X217000000Y-97000000D02*
X193500000Y-97000000D01*
X173000000Y-115000000D02*
X170990000Y-112990000D01*
X193500000Y-97000000D02*
X175500000Y-115000000D01*
%TO.N,Net-(M1-C5B)*%
X163370000Y-114120000D02*
X163370000Y-112380000D01*
X224870000Y-112380000D02*
X224870000Y-112370000D01*
X178500000Y-120000000D02*
X169250000Y-120000000D01*
X215490000Y-103000000D02*
X195500000Y-103000000D01*
X169250000Y-120000000D02*
X163370000Y-114120000D01*
X224870000Y-112380000D02*
X215490000Y-103000000D01*
X195500000Y-103000000D02*
X178500000Y-120000000D01*
%TO.N,Net-(M1-C6B)*%
X179500000Y-121500000D02*
X167812500Y-121500000D01*
X214950000Y-105000000D02*
X196000000Y-105000000D01*
X222330000Y-112380000D02*
X214950000Y-105000000D01*
X167812500Y-121500000D02*
X160830000Y-114517500D01*
X196000000Y-105000000D02*
X179500000Y-121500000D01*
X160830000Y-114517500D02*
X160830000Y-112380000D01*
%TO.N,Net-(A1-5V-Pad5V4)*%
X248500000Y-83500000D02*
X252500000Y-83500000D01*
X245500000Y-80500000D02*
X248500000Y-83500000D01*
X255500000Y-80500000D02*
X255500000Y-66500000D01*
X255500000Y-66500000D02*
X254500000Y-65500000D01*
X245500000Y-76180000D02*
X245500000Y-80500000D01*
X242560000Y-73240000D02*
X245500000Y-76180000D01*
X254500000Y-65500000D02*
X253000000Y-65500000D01*
X252500000Y-83500000D02*
X255500000Y-80500000D01*
%TD*%
M02*
