M48
; DRILL file {KiCad 8.0.1} date 2024-05-09T09:21:58-0400
; FORMAT={-:-/ absolute / inch / decimal}
; #@! TF.CreationDate,2024-05-09T09:21:58-04:00
; #@! TF.GenerationSoftware,Kicad,Pcbnew,8.0.1
; #@! TF.FileFunction,Plated,1,2,PTH
FMAT,2
INCH
; #@! TA.AperFunction,Plated,PTH,ComponentDrill
T1C0.0276
; #@! TA.AperFunction,Plated,PTH,ComponentDrill
T2C0.0315
; #@! TA.AperFunction,Plated,PTH,ComponentDrill
T3C0.0390
; #@! TA.AperFunction,Plated,PTH,ComponentDrill
T4C0.0394
; #@! TA.AperFunction,Plated,PTH,ComponentDrill
T5C0.0400
%
G90
G05
T1
X5.6374Y-2.9331
X5.6374Y-3.0157
X5.6374Y-3.0984
X5.6374Y-3.1811
X5.9374Y-2.9331
X5.9374Y-3.0157
X5.9374Y-3.0984
X5.9374Y-3.1811
X6.7004Y-3.2283
X6.7004Y-3.311
X6.7004Y-3.3937
X6.7004Y-3.4764
X7.0004Y-3.2283
X7.0004Y-3.311
X7.0004Y-3.3937
X7.0004Y-3.4764
X7.7559Y-3.1768
X7.7559Y-3.4768
X7.8543Y-3.1768
X7.8543Y-3.4768
X7.9528Y-3.1768
X7.9528Y-3.4768
X8.0512Y-3.1768
X8.0512Y-3.4768
X8.4843Y-3.1496
X8.4843Y-3.4496
X8.6181Y-3.1496
X8.6181Y-3.4496
X9.8386Y-3.1965
X9.8386Y-3.4965
X9.9213Y-3.1965
X9.9213Y-3.4965
X9.9606Y-2.5787
X10.2606Y-2.5787
T2
X5.3319Y-2.6031
X5.3319Y-4.4244
X5.4319Y-2.6031
X5.4319Y-4.4244
X5.5319Y-2.6031
X5.5319Y-4.4244
X5.6319Y-2.6031
X5.6319Y-4.4244
X5.7319Y-2.6031
X5.7319Y-4.4244
X5.8319Y-2.6031
X5.8319Y-4.4244
X5.9319Y-2.6031
X5.9319Y-4.4244
X6.0319Y-2.6031
X6.0319Y-4.4244
X6.1319Y-2.6031
X6.1319Y-4.4244
X6.2319Y-2.6031
X6.2319Y-4.4244
X6.3319Y-2.6031
X6.3319Y-4.4244
X6.4319Y-2.6031
X6.4319Y-4.4244
X6.5319Y-2.6031
X6.5319Y-4.4244
X6.6319Y-2.6031
X6.6319Y-4.4244
X6.7319Y-2.6031
X6.7319Y-4.4244
X6.8319Y-2.6031
X6.8319Y-4.4244
X7.7531Y-2.6031
X7.7531Y-4.4244
X7.8531Y-2.6031
X7.8531Y-4.4244
X7.9531Y-2.6031
X7.9531Y-4.4244
X8.0531Y-2.6031
X8.0531Y-4.4244
X8.1531Y-2.6031
X8.1531Y-4.4244
X8.2531Y-2.6031
X8.2531Y-4.4244
X8.3531Y-2.6031
X8.3531Y-4.4244
X8.4531Y-2.6031
X8.4531Y-4.4244
X8.5531Y-2.6031
X8.5531Y-4.4244
X8.6531Y-2.6031
X8.6531Y-4.4244
X8.7531Y-2.6031
X8.7531Y-4.4244
X8.8531Y-2.6031
X8.8531Y-4.4244
X8.9531Y-2.6031
X8.9531Y-4.4244
X9.0531Y-2.6031
X9.0531Y-4.4244
X9.1531Y-2.6031
X9.1531Y-4.4244
X9.2531Y-2.6031
X9.2531Y-4.4244
T3
X9.9728Y-2.7165
X9.9728Y-2.8937
X10.2287Y-2.7165
X10.2287Y-2.8937
T5
X6.8896Y-2.8835
X6.9896Y-2.8835
X7.0896Y-2.8835
X7.1896Y-2.8835
X7.2896Y-2.8835
X7.3896Y-2.8835
X7.5496Y-2.8835
X7.6496Y-2.8835
X7.7496Y-2.8835
X7.8496Y-2.8835
X7.9496Y-2.8835
X8.0496Y-2.8835
X8.3496Y-4.785
X8.4496Y-4.7835
X8.6496Y-4.7835
X8.7496Y-4.7835
X8.8496Y-4.7835
X8.9496Y-4.7835
X9.0496Y-4.7835
X9.1496Y-4.7835
X9.2496Y-4.7835
X9.3496Y-4.7835
X9.4496Y-2.8835
X9.4496Y-2.9835
X9.4496Y-3.0835
X9.4496Y-3.1835
X9.4496Y-3.2835
X9.4496Y-3.3835
X9.4496Y-3.4835
X9.4496Y-3.5835
X9.4496Y-3.6835
X9.4496Y-3.7835
X9.4496Y-3.8835
X9.4496Y-3.9835
X9.4496Y-4.0835
X9.4496Y-4.1835
X9.4496Y-4.2835
X9.4496Y-4.3835
X9.4496Y-4.4835
X9.5496Y-2.8835
X9.5496Y-2.9835
X9.5496Y-3.0835
X9.5496Y-3.1835
X9.5496Y-3.2835
X9.5496Y-3.3835
X9.5496Y-3.4835
X9.5496Y-3.5835
X9.5496Y-3.6835
X9.5496Y-3.7835
X9.5496Y-3.8835
X9.5496Y-3.9835
X9.5496Y-4.0835
X9.5496Y-4.1835
X9.5496Y-4.2835
X9.5496Y-4.3835
X9.5496Y-4.4835
X9.5496Y-4.5835
T4
G00X9.9587Y-4.5768
M15
G01X9.939Y-4.5768
M16
G05
G00X9.9587Y-4.7539
M15
G01X9.939Y-4.7539
M16
G05
G00X10.1673Y-4.6063
M15
G01X10.1476Y-4.6063
M16
G05
M30
