%TF.GenerationSoftware,KiCad,Pcbnew,8.0.1*%
%TF.CreationDate,2024-05-09T09:41:50-04:00*%
%TF.ProjectId,Project 4.0,50726f6a-6563-4742-9034-2e302e6b6963,rev?*%
%TF.SameCoordinates,Original*%
%TF.FileFunction,Soldermask,Top*%
%TF.FilePolarity,Negative*%
%FSLAX46Y46*%
G04 Gerber Fmt 4.6, Leading zero omitted, Abs format (unit mm)*
G04 Created by KiCad (PCBNEW 8.0.1) date 2024-05-09 09:41:50*
%MOMM*%
%LPD*%
G01*
G04 APERTURE LIST*
G04 Aperture macros list*
%AMRoundRect*
0 Rectangle with rounded corners*
0 $1 Rounding radius*
0 $2 $3 $4 $5 $6 $7 $8 $9 X,Y pos of 4 corners*
0 Add a 4 corners polygon primitive as box body*
4,1,4,$2,$3,$4,$5,$6,$7,$8,$9,$2,$3,0*
0 Add four circle primitives for the rounded corners*
1,1,$1+$1,$2,$3*
1,1,$1+$1,$4,$5*
1,1,$1+$1,$6,$7*
1,1,$1+$1,$8,$9*
0 Add four rect primitives between the rounded corners*
20,1,$1+$1,$2,$3,$4,$5,0*
20,1,$1+$1,$4,$5,$6,$7,0*
20,1,$1+$1,$6,$7,$8,$9,0*
20,1,$1+$1,$8,$9,$2,$3,0*%
G04 Aperture macros list end*
%ADD10C,1.400000*%
%ADD11O,1.400000X1.400000*%
%ADD12RoundRect,0.102000X-0.749000X-0.749000X0.749000X-0.749000X0.749000X0.749000X-0.749000X0.749000X0*%
%ADD13C,1.702000*%
%ADD14R,1.600000X1.600000*%
%ADD15O,1.600000X1.600000*%
%ADD16O,1.727200X1.727200*%
%ADD17C,1.727200*%
%ADD18R,2.000000X1.500000*%
G04 APERTURE END LIST*
D10*
%TO.C,R10*%
X143190000Y-80800000D03*
D11*
X150810000Y-80800000D03*
%TD*%
D12*
%TO.C,SW1*%
X253310000Y-69000000D03*
D13*
X259810000Y-69000000D03*
X253310000Y-73500000D03*
X259810000Y-73500000D03*
%TD*%
D10*
%TO.C,R9*%
X204500000Y-80690000D03*
D11*
X204500000Y-88310000D03*
%TD*%
D10*
%TO.C,R2*%
X215500000Y-80000000D03*
D11*
X215500000Y-87620000D03*
%TD*%
D10*
%TO.C,R5*%
X252000000Y-81190000D03*
D11*
X252000000Y-88810000D03*
%TD*%
D10*
%TO.C,R6*%
X197000000Y-80690000D03*
D11*
X197000000Y-88310000D03*
%TD*%
D10*
%TO.C,R14*%
X170190000Y-88300000D03*
D11*
X177810000Y-88300000D03*
%TD*%
D10*
%TO.C,R15*%
X170190000Y-86200000D03*
D11*
X177810000Y-86200000D03*
%TD*%
D10*
%TO.C,R8*%
X202000000Y-80690000D03*
D11*
X202000000Y-88310000D03*
%TD*%
D10*
%TO.C,R7*%
X199500000Y-80690000D03*
D11*
X199500000Y-88310000D03*
%TD*%
D10*
%TO.C,R13*%
X143190000Y-74500000D03*
D11*
X150810000Y-74500000D03*
%TD*%
D10*
%TO.C,R3*%
X249900000Y-81190000D03*
D11*
X249900000Y-88810000D03*
%TD*%
D10*
%TO.C,R12*%
X143190000Y-76600000D03*
D11*
X150810000Y-76600000D03*
%TD*%
D10*
%TO.C,R11*%
X143190000Y-78700000D03*
D11*
X150810000Y-78700000D03*
%TD*%
D10*
%TO.C,R4*%
X218900000Y-80000000D03*
D11*
X218900000Y-87620000D03*
%TD*%
D10*
%TO.C,R16*%
X170190000Y-84100000D03*
D11*
X177810000Y-84100000D03*
%TD*%
D10*
%TO.C,R1*%
X253000000Y-65500000D03*
D11*
X260620000Y-65500000D03*
%TD*%
D14*
%TO.C,M2*%
X235030000Y-112380000D03*
D15*
X232490000Y-112380000D03*
X229950000Y-112380000D03*
X227410000Y-112380000D03*
X224870000Y-112380000D03*
X222330000Y-112380000D03*
X219790000Y-112380000D03*
X217250000Y-112380000D03*
X214710000Y-112380000D03*
X212170000Y-112380000D03*
X209630000Y-112380000D03*
X207090000Y-112380000D03*
X204550000Y-112380000D03*
X202010000Y-112380000D03*
X199470000Y-112380000D03*
X196930000Y-112380000D03*
X196930000Y-66120000D03*
X199470000Y-66120000D03*
X202010000Y-66120000D03*
X204550000Y-66120000D03*
X207090000Y-66120000D03*
X209630000Y-66120000D03*
X212170000Y-66120000D03*
X214710000Y-66120000D03*
X217250000Y-66120000D03*
X219790000Y-66120000D03*
X222330000Y-66120000D03*
X224870000Y-66120000D03*
X227410000Y-66120000D03*
X229950000Y-66120000D03*
X232490000Y-66120000D03*
X235030000Y-66120000D03*
%TD*%
D10*
%TO.C,R17*%
X170190000Y-82000000D03*
D11*
X177810000Y-82000000D03*
%TD*%
D16*
%TO.C,A1*%
X240020000Y-73240000D03*
X242560000Y-73240000D03*
X212080000Y-121540000D03*
X214620000Y-121500000D03*
X219700000Y-121500000D03*
X222240000Y-121500000D03*
X224780000Y-121500000D03*
X227320000Y-121500000D03*
X229860000Y-121500000D03*
X232400000Y-121500000D03*
X234940000Y-121500000D03*
X237480000Y-121500000D03*
X204460000Y-73240000D03*
X201920000Y-73240000D03*
X199380000Y-73240000D03*
X196840000Y-73240000D03*
X194300000Y-73240000D03*
X191760000Y-73240000D03*
X187696000Y-73240000D03*
X185156000Y-73240000D03*
X182616000Y-73240000D03*
X180076000Y-73240000D03*
X177536000Y-73240000D03*
X174996000Y-73240000D03*
X240020000Y-75780000D03*
X242560000Y-75780000D03*
X240020000Y-78320000D03*
X242560000Y-78320000D03*
X240020000Y-80860000D03*
X242560000Y-80860000D03*
X240020000Y-83400000D03*
X242560000Y-83400000D03*
X240020000Y-85940000D03*
X242560000Y-85940000D03*
X240020000Y-88480000D03*
X242560000Y-88480000D03*
X240020000Y-91020000D03*
X242560000Y-91020000D03*
X240020000Y-93560000D03*
X242560000Y-93560000D03*
X240020000Y-96100000D03*
X242560000Y-96100000D03*
X240020000Y-98640000D03*
X242560000Y-98640000D03*
X240020000Y-101180000D03*
X242560000Y-101180000D03*
X240020000Y-103720000D03*
X242560000Y-103720000D03*
X240020000Y-106260000D03*
X242560000Y-106260000D03*
X240020000Y-108800000D03*
X242560000Y-108800000D03*
X240020000Y-111340000D03*
X242560000Y-111340000D03*
X240020000Y-113880000D03*
X242560000Y-113880000D03*
D17*
X242560000Y-116420000D03*
%TD*%
D14*
%TO.C,M1*%
X173530000Y-112380000D03*
D15*
X170990000Y-112380000D03*
X168450000Y-112380000D03*
X165910000Y-112380000D03*
X163370000Y-112380000D03*
X160830000Y-112380000D03*
X158290000Y-112380000D03*
X155750000Y-112380000D03*
X153210000Y-112380000D03*
X150670000Y-112380000D03*
X148130000Y-112380000D03*
X145590000Y-112380000D03*
X143050000Y-112380000D03*
X140510000Y-112380000D03*
X137970000Y-112380000D03*
X135430000Y-112380000D03*
X135430000Y-66120000D03*
X137970000Y-66120000D03*
X140510000Y-66120000D03*
X143050000Y-66120000D03*
X145590000Y-66120000D03*
X148130000Y-66120000D03*
X150670000Y-66120000D03*
X153210000Y-66120000D03*
X155750000Y-66120000D03*
X158290000Y-66120000D03*
X160830000Y-66120000D03*
X163370000Y-66120000D03*
X165910000Y-66120000D03*
X168450000Y-66120000D03*
X170990000Y-66120000D03*
X173530000Y-66120000D03*
%TD*%
D18*
%TO.C,J1*%
X252700000Y-120750000D03*
X258000000Y-117000000D03*
X252700000Y-116250000D03*
%TD*%
M02*
